<svg xmlns="http://www.w3.org/2000/svg" width="200" height="200" fill="none" xmlns:v="https://vecta.io/nano"><g clip-path="url(#B)"><use href="#C" fill="#fff"/><use href="#C" fill="url(#A)"/><path fill-rule="evenodd" d="M55.055 161.097c-18.329-13.778-30.222-35.798-30.222-60.597 0-41.745 33.669-75.614 75.166-75.614 34.262 0 71.674 20.597 80.713 52.147C170.601 41.786 138.302 16 100 16c-46.383 0-84 37.841-84 84.5S53.617 185 100 185s84-37.841 84-84.5v-4.455h-4.611-.616a54.62 54.62 0 0 1-2.328-.069 145.47 145.47 0 0 1-7.807-.482c-6.3-.551-13.49-1.63-18.375-3.605-7.875-3.169-12.326-7.348-17.393-12.262l-.297-.276c-5.09-4.914-10.797-10.448-20.726-15.132-9.77-4.615-20.567-3.881-28.487-2.227-4.017.827-7.487 1.929-9.929 2.824-1.233.436-2.214.85-2.899 1.125-3.994 1.699-7.875 3.697-11.778 5.557l11.482 3.307.639.207a30.16 30.16 0 0 1 2.374.895c2.009.827 4.634 2.044 7.236 3.743 4.109 2.641 7.51 5.993 8.902 10.08-8.697 1.148-16.869 5.006-22.986 8.611-3.698 2.181-6.779 4.385-8.948 6.016l-2.534 1.997c-.502.414-8.354 7.371-8.354 7.371s10.135 1.079 15.134 2.09c3.333.666 7.807 1.768 12.509 3.398 4.702 1.653 9.45 3.812 13.399 6.59s6.848 5.97 8.263 9.644c4.154 10.7.069 21.102-8.126 26.957-8.103 5.787-20.407 7.165-32.71-1.331l.023.023zm28.67 13.226c3.31-1.08 6.391-2.664 9.176-4.639 11.139-7.967 17.006-22.571 11.231-37.451-2.283-5.855-6.62-10.309-11.436-13.708-4.839-3.398-10.386-5.878-15.545-7.692-3.378-1.194-6.665-2.113-9.519-2.801 1.027-.666 2.1-1.355 3.264-2.044 6.802-4.018 15.385-7.715 23.602-7.715 12.394 0 21.616 3.834 30.427 7.922l2.42 1.125c7.875 3.72 16.138 7.623 25.747 7.623s16.572-2.641 21.571-5.396c-4.451 37.474-36.156 66.544-74.618 66.544-5.593 0-11.048-.62-16.275-1.768h-.046zm81.352-70.218c-3.31 1.125-7.327 1.952-12.006 1.952-7.533 0-14.016-3.031-22.233-6.889l-2.214-1.033c-8.24-3.835-17.759-7.899-30.153-8.634-1.666-8.243-7.875-13.892-13.216-17.336a37.4 37.4 0 0 0-1.78-1.102l1.644-.367c7.167-1.493 15.705-1.86 22.941 1.584 8.582 4.064 13.444 8.749 18.489 13.616l.182.161c5.182 5.006 10.683 10.264 20.247 14.122 5.319 2.135 12.212 3.283 18.101 3.926z" fill="#000" fill-opacity=".1"/><path d="M144.092 85.753c1.99-13.306-8.141-20.459-21.994-25.231l4.494-18.025-10.972-2.734-4.375 17.55-8.791-2.069 4.406-17.666-10.965-2.734-4.497 18.019-7.006-1.647.013-.056-15.131-3.778L66.354 59.1s8.141 1.866 7.969 1.981c4.444 1.109 5.247 4.05 5.112 6.381l-5.119 20.534c.306.078.703.191 1.141.366l-1.159-.287-7.175 28.766c-.544 1.35-1.922 3.375-5.028 2.606.109.159-7.975-1.991-7.975-1.991l-5.447 12.56 14.278 3.559 7.822 2.019-4.541 18.231 10.959 2.734 4.497-18.037 8.744 2.269-4.481 17.953 10.972 2.734 4.54-18.197c18.71 3.541 32.779 2.113 38.7-14.809 4.772-13.625-.237-21.485-10.081-26.61 7.169-1.653 12.569-6.368 14.01-16.109zm-25.069 35.153c-3.391 13.625-26.331 6.26-33.769 4.413l6.025-24.153c7.438 1.856 31.288 5.531 27.744 19.74zm3.394-35.35c-3.094 12.394-22.188 6.097-28.382 4.553l5.462-21.906c6.194 1.544 26.14 4.425 22.919 17.353z" fill="#fff"/><path d="M8.816 77.271h0C21.367 26.908 72.376-3.741 122.729 8.813h0c50.366 12.555 81.013 63.567 68.457 113.927s-63.565 81.003-113.934 68.445C26.904 178.631-3.746 127.625 8.816 77.271z" stroke="#fff" stroke-width="4"/></g><defs><linearGradient id="A" x1="-1.793" y1="101.849" x2="201.793" y2="98.126" gradientUnits="userSpaceOnUse"><stop stop-color="#29ccb9"/><stop offset=".49" stop-color="#0091ff"/><stop offset="1" stop-color="#ff66b7"/></linearGradient><clipPath id="B"><path fill="#fff" d="M0 0h200v200H0z"/></clipPath><path id="C" d="M197.007 124.192c-13.358 53.572-67.623 86.175-121.207 72.816-53.562-13.356-86.168-67.619-72.805-121.187C16.347 22.243 70.612-10.364 124.18 2.992c53.581 13.356 86.184 67.625 72.827 121.2z"/></defs></svg>