<svg width="96" height="114" viewBox="0 0 96 114" fill="none" xmlns="http://www.w3.org/2000/svg">
<path d="M23.054 45.632L48.0006 33.4092V0L23.054 45.632Z" fill="#FF596E"/>
<path d="M48.0001 33.4092V60.0293L72.9466 45.632L48.0001 33.4092Z" fill="#FF596E"/>
<path d="M48.0006 33.4092V60.0293L23.054 45.632L48.0006 33.4092Z" fill="#800010"/>
<path d="M72.9466 45.632L48.0001 33.4092V0L72.9466 45.632Z" fill="#800010"/>
<path d="M47.9968 70.3057V98.6779L22.5707 55.6298L47.9968 70.3057Z" fill="#FF596E"/>
<path d="M48.0001 70.3057V98.6779L73.4262 55.6298L48.0001 70.3057Z" fill="#800010"/>
<path d="M77.6248 62.1318L83.3848 79.2059L96 56.9471L77.6248 62.1318Z" fill="#800010"/>
<path d="M83.3832 79.2059L95.9984 75.2582V56.9471L83.3832 79.2059Z" fill="#FF596E"/>
<path d="M95.9941 75.2582L77.6189 107.688L63.6608 114L83.379 79.2058L95.9941 75.2582Z" fill="#800010"/>
<path d="M0 75.2583L18.3752 107.688L32.3333 114L12.6152 79.2059L0 75.2583Z" fill="#FF596E"/>
<path d="M48.0001 114L18.377 62.132L12.617 79.206L32.3352 114H48.0001Z" fill="#800010"/>
<path d="M18.3752 62.1318L12.6152 79.2059L0 56.9471L18.3752 62.1318Z" fill="#FF596E"/>
<path d="M12.6152 79.2059L0 75.2582V56.9471L12.6152 79.2059Z" fill="#800010"/>
<path d="M48.0001 114L77.6232 62.132L83.3832 79.206L63.6651 114H48.0001Z" fill="#FF596E"/>
</svg>
