<svg xmlns="http://www.w3.org/2000/svg" width="250" height="250"><filter id="a" width="100%" height="100%" x="0%" y="0%"><feColorMatrix in="SourceGraphic" values="0 0 0 0 1 0 0 0 0 1 0 0 0 0 1 0 0 0 1 0"/></filter><mask id="c"><g filter="url(#a)"><path fill-opacity=".6" d="M0 0h250v250H0z"/></g></mask><clipPath id="b"><path d="M0 0h250v250H0z"/></clipPath><mask id="e"><g filter="url(#a)"><path fill-opacity=".6" d="M0 0h250v250H0z"/></g></mask><clipPath id="d"><path d="M0 0h250v250H0z"/></clipPath><mask id="g"><g filter="url(#a)"><path fill-opacity=".2" d="M0 0h250v250H0z"/></g></mask><clipPath id="f"><path d="M0 0h250v250H0z"/></clipPath><mask id="i"><g filter="url(#a)"><path fill-opacity=".2" d="M0 0h250v250H0z"/></g></mask><clipPath id="h"><path d="M0 0h250v250H0z"/></clipPath><mask id="k"><g filter="url(#a)"><path fill-opacity=".6" d="M0 0h250v250H0z"/></g></mask><clipPath id="j"><path d="M0 0h250v250H0z"/></clipPath><mask id="m"><g filter="url(#a)"><path fill-opacity=".6" d="M0 0h250v250H0z"/></g></mask><clipPath id="l"><path d="M0 0h250v250H0z"/></clipPath><path fill="#00a3ff" d="M0 0h250v250H0z"/><path fill="#fff" d="m73.727 116.129-1.403 2.148c-15.785 24.211-12.258 55.922 8.477 76.239 12.199 11.953 28.183 17.93 44.172 17.93l-51.246-96.317zm0 0"/><g clip-path="url(#b)" mask="url(#c)"><path fill="#fff" d="m124.969 145.402-51.25-29.273 51.25 96.316v-67.043zm0 0"/></g><g clip-path="url(#d)" mask="url(#e)"><path fill="#fff" d="m176.273 116.129 1.403 2.148c15.785 24.211 12.258 55.922-8.477 76.239-12.199 11.953-28.183 17.93-44.172 17.93l51.246-96.317zm0 0"/></g><g clip-path="url(#f)" mask="url(#g)"><path fill="#fff" d="m125.02 145.402 51.25-29.273c-51.247 96.316-51.25 96.316-51.25 96.316v-67.043zm0 0"/></g><g clip-path="url(#h)" mask="url(#i)"><path fill="#fff" d="M125.031 79.996v50.488l44.145-25.226zm0 0"/></g><g clip-path="url(#j)" mask="url(#k)"><path fill="#fff" d="m125.04 79.996-44.18 25.262 44.18 25.226zm0 0"/></g><path fill="#fff" d="m125.04 37.535-44.18 67.738 44.18-25.332zm0 0"/><g clip-path="url(#l)" mask="url(#m)"><path fill="#fff" d="m125.031 79.934 44.176 25.332-44.176-67.77zm0 0"/></g></svg>