<svg width="200" height="200" viewBox="0 0 200 200" fill="none" xmlns="http://www.w3.org/2000/svg">
<g clip-path="url(#clip0_1412_1450)">
<path d="M197.007 124.192C183.649 177.764 129.384 210.367 75.8001 197.008C22.2382 183.652 -10.3684 129.389 2.99551 75.8206C16.3469 22.2425 70.6121 -10.3638 124.18 2.99249C177.761 16.3487 210.364 70.6175 197.007 124.192Z" fill="url(#paint0_linear_1412_1450)"/>
<path fill-rule="evenodd" clip-rule="evenodd" d="M55.0554 161.097C36.7261 147.319 24.8337 125.299 24.8337 100.5C24.8337 58.7552 58.5022 24.8863 100 24.8863C134.262 24.8863 171.674 45.4832 180.713 77.0329C170.601 41.7863 138.302 16 100 16C53.6174 16 16 53.8413 16 100.5C16 147.159 53.6174 185 100 185C146.383 185 184 147.159 184 100.5V96.0454H179.389C179.252 96.0454 179.047 96.0454 178.773 96.0454C178.225 96.0454 177.449 96.0224 176.445 95.9765C174.459 95.9076 171.72 95.7698 168.638 95.4943C162.338 94.9432 155.148 93.864 150.263 91.8893C142.388 88.7205 137.937 84.5414 132.87 79.6276L132.573 79.352C127.483 74.4382 121.776 68.9043 111.847 64.2201C102.077 59.6048 91.2804 60.3395 83.3598 61.9928C79.3424 62.8194 75.8728 63.9216 73.4304 64.8171C72.1978 65.2534 71.2163 65.6667 70.5315 65.9423C66.537 67.6414 62.6565 69.6391 58.7533 71.4991C58.7533 71.4991 66.4457 73.6116 70.2348 74.8056C70.3717 74.8515 70.5772 74.9204 70.8739 75.0122C71.4446 75.1959 72.2663 75.4944 73.2478 75.9077C75.2565 76.7344 77.8815 77.9514 80.4837 79.6505C84.5924 82.2912 87.9935 85.6436 89.3859 89.7308C80.6891 90.8789 72.5174 94.7366 66.4 98.3416C62.7022 100.523 59.6207 102.727 57.4522 104.358C56.3793 105.184 55.512 105.873 54.9185 106.355C54.4163 106.769 46.5641 113.726 46.5641 113.726C46.5641 113.726 56.6989 114.805 61.6978 115.816C65.0304 116.482 69.5043 117.584 74.2065 119.214C78.9087 120.867 83.6565 123.026 87.6054 125.804C91.5544 128.582 94.4533 131.774 95.8685 135.448C100.023 146.148 95.937 156.55 87.7424 162.405C79.6391 168.192 67.3359 169.57 55.0326 161.074L55.0554 161.097ZM83.725 174.323C87.0348 173.243 90.1163 171.659 92.9011 169.684C104.04 161.717 109.907 147.113 104.132 132.233C101.849 126.378 97.512 121.924 92.6957 118.525C87.8565 115.127 82.3098 112.647 77.1511 110.833C73.7728 109.639 70.4859 108.72 67.6326 108.032C68.6598 107.366 69.7326 106.677 70.8967 105.988C77.6989 101.97 86.2815 98.2727 94.4989 98.2727C106.893 98.2727 116.115 102.107 124.926 106.195C125.725 106.562 126.524 106.952 127.346 107.32C135.221 111.04 143.484 114.943 153.093 114.943C162.703 114.943 169.665 112.302 174.664 109.547C170.213 147.021 138.508 176.091 100.046 176.091C94.4533 176.091 88.9978 175.471 83.7707 174.323H83.725ZM165.077 104.105C161.767 105.23 157.75 106.057 153.071 106.057C145.538 106.057 139.055 103.026 130.838 99.1682C130.108 98.8238 129.377 98.4794 128.624 98.1349C120.384 94.3003 110.865 90.236 98.4707 89.5012C96.8044 81.2579 90.5957 75.6092 85.2543 72.1649C84.6609 71.7746 84.0674 71.4072 83.4739 71.0628C83.9989 70.948 84.5467 70.8102 85.1174 70.6954C92.2848 69.2029 100.822 68.8355 108.058 72.2798C116.64 76.344 121.502 81.0283 126.547 85.8962L126.729 86.0569C131.911 91.0626 137.412 96.3209 146.976 100.179C152.295 102.314 159.188 103.462 165.077 104.105Z" fill="black" fill-opacity="0.1"/>
<path d="M8.81621 77.2712L8.81634 77.2707C21.3666 26.9081 72.3756 -3.74129 122.729 8.81335L122.729 8.81338C173.095 21.368 203.742 72.3799 191.186 122.74C178.63 173.096 127.621 203.743 77.2519 191.185C26.9042 178.631 -3.74572 127.625 8.81621 77.2712Z" stroke="white" stroke-width="4"/>
<path d="M80.6958 52.6915C75.546 55.067 71.4183 58.4316 68.395 62.8011L68.395 62.8011L68.3882 62.811C65.4244 67.139 63.9624 72.0952 63.9624 77.5929C63.9624 82.6706 64.9532 87.0799 67.1131 90.6641L67.1265 90.6864L67.1404 90.7083C69.2976 94.1253 72.1072 96.8758 75.5503 98.9326L75.5635 98.9405L75.5768 98.9483C78.9249 100.893 82.5396 102.506 86.4148 103.792L86.4481 103.803L86.4817 103.813C90.3216 104.969 94.1184 106.037 97.8721 107.015C101.509 107.964 104.822 109.036 107.815 110.228L107.826 110.232L107.837 110.237C110.777 111.375 112.964 112.785 114.513 114.401L114.533 114.422L114.554 114.442C115.959 115.841 116.743 117.725 116.743 120.348C116.743 124.306 115.331 127.204 112.554 129.338C109.648 131.482 105.661 132.674 100.364 132.674C94.2352 132.674 89.71 130.903 86.4703 127.608C83.2387 124.235 81.4595 119.332 81.4595 112.538V110.038H78.9595H65H62.5V112.538C62.5 120.194 64.0295 126.865 67.2167 132.443C70.3852 137.988 74.8663 142.253 80.6078 145.206C83.4745 146.681 86.5709 147.776 89.8873 148.502V159V161.5H92.3873H105.815H108.315V159V149.013C111.983 148.451 115.431 147.474 118.648 146.069C124.054 143.708 128.411 140.359 131.626 135.994L131.633 135.984L131.641 135.973C134.901 131.448 136.5 126.16 136.5 120.216C136.5 114.813 135.476 110.152 133.242 106.393C131.185 102.7 128.376 99.7488 124.832 97.5843C121.541 95.4356 117.934 93.76 114.022 92.5522C110.246 91.2996 106.424 90.2251 102.557 89.3287C98.9088 88.3766 95.5295 87.3843 92.4178 86.3527C89.5723 85.296 87.363 83.9989 85.7116 82.5105C84.4457 81.2997 83.7197 79.6239 83.7197 77.1958C83.7197 73.7158 85.0136 71.1137 87.6432 69.1324C90.3829 67.0681 94.0654 65.9294 98.9017 65.9294C102.204 65.9294 105.106 66.5689 107.653 67.7987L107.693 67.8182L107.734 67.8362C110.35 68.9851 112.37 70.638 113.864 72.7951L113.892 72.836L113.922 72.8757C115.427 74.873 116.267 77.3501 116.345 80.4354L116.406 82.8726H118.844H132.936H135.474L135.436 80.3357C135.341 73.9042 133.624 68.2719 130.185 63.5645C126.906 58.8686 122.524 55.2868 117.102 52.8213C114.341 51.5208 111.41 50.5586 108.315 49.9271V40V37.5H105.815H92.3873H89.8873V40V49.794C86.5936 50.3989 83.5263 51.3603 80.6958 52.6915Z" stroke="white" stroke-width="5"/>
<path d="M92.3873 55.4872V40H105.815V55.4872H92.3873ZM92.3873 159V142.851H105.815V159H92.3873ZM100.497 147.087C93.3179 147.087 87.0694 145.719 81.7514 142.983C76.4335 140.248 72.3121 136.321 69.3873 131.202C66.4624 126.084 65 119.863 65 112.538H78.9595C78.9595 119.775 80.8651 125.378 84.6763 129.349C88.4875 133.232 93.7168 135.174 100.364 135.174C106.037 135.174 110.601 133.894 114.058 131.335C117.514 128.687 119.243 125.025 119.243 120.348C119.243 117.171 118.268 114.612 116.318 112.671C114.457 110.729 111.931 109.141 108.74 107.905C105.638 106.67 102.225 105.567 98.5029 104.596C94.7803 103.626 91.0135 102.567 87.2023 101.419C83.4798 100.184 80.0231 98.6396 76.8324 96.7864C73.7303 94.9333 71.2042 92.4624 69.2543 89.3738C67.3931 86.2851 66.4624 82.3582 66.4624 77.5929C66.4624 72.5629 67.7919 68.1064 70.4509 64.2236C73.1985 60.2525 76.9653 57.1639 81.7514 54.9577C86.6262 52.6633 92.343 51.5161 98.9017 51.5161C105.283 51.5161 111 52.7075 116.052 55.0901C121.104 57.3845 125.137 60.6937 128.15 65.0178C131.252 69.2536 132.848 74.3719 132.936 80.3726H118.844C118.755 76.8428 117.78 73.8424 115.919 71.3715C114.146 68.8124 111.753 66.871 108.74 65.5473C105.815 64.1353 102.536 63.4294 98.9017 63.4294C93.6724 63.4294 89.4181 64.6648 86.1387 67.1357C82.8593 69.6066 81.2197 72.96 81.2197 77.1958C81.2197 80.1961 82.1503 82.5788 84.0116 84.3437C85.9615 86.1086 88.4875 87.5647 91.5896 88.7119C94.7803 89.7709 98.237 90.7857 101.96 91.7564C105.771 92.6389 109.538 93.6978 113.26 94.9333C116.983 96.0805 120.395 97.6689 123.497 99.6986C126.688 101.64 129.214 104.287 131.075 107.641C133.025 110.906 134 115.098 134 120.216C134 125.687 132.538 130.452 129.613 134.512C126.688 138.483 122.699 141.571 117.647 143.778C112.595 145.984 106.879 147.087 100.497 147.087Z" fill="white" fill-opacity="0.4"/>
</g>
<defs>
<linearGradient id="paint0_linear_1412_1450" x1="-1.79348" y1="101.849" x2="201.793" y2="98.1261" gradientUnits="userSpaceOnUse">
<stop stop-color="#29CCB9"/>
<stop offset="0.49" stop-color="#0091FF"/>
<stop offset="1" stop-color="#FF66B7"/>
</linearGradient>
<clipPath id="clip0_1412_1450">
<rect width="200" height="200" fill="white"/>
</clipPath>
</defs>
</svg>
