<svg xmlns="http://www.w3.org/2000/svg" xmlns:xlink="http://www.w3.org/1999/xlink" width="250" height="250" xmlns:v="https://vecta.io/nano"><style><![CDATA[.B{filter:url(#V)}.C{fill:none}.D{stroke-miterlimit:10}.E{stroke-width:1.042}.F{fill-opacity:.3}.G{stroke:#fff}.H{stroke:#b44b34}.I{fill-opacity:.2}.J{stroke:#0396b6}]]></style><clipPath id="A"><use xlink:href="#An"/></clipPath><linearGradient id="B" x1="-1.089" x2="249.533" y1="252.643" y2="-1.107" gradientUnits="userSpaceOnUse"><stop offset="0" stop-color="#ffd275"/><stop offset=".132" stop-color="#feca74"/><stop offset=".358" stop-color="#fbb570"/><stop offset=".652" stop-color="#f79569"/><stop offset="1" stop-color="#f2665f"/></linearGradient><clipPath id="C"><path d="M30 46h36v45H30zm0 0"/></clipPath><clipPath id="D"><use xlink:href="#An"/></clipPath><clipPath id="E"><path d="M34 0h27v31H34zm0 0"/></clipPath><clipPath id="F"><use xlink:href="#An"/></clipPath><clipPath id="G"><path d="M65 2h72v42H65zm0 0"/></clipPath><clipPath id="H"><use xlink:href="#An"/></clipPath><clipPath id="I"><path d="M169 39h40v83h-40zm0 0"/></clipPath><clipPath id="J"><use xlink:href="#An"/></clipPath><clipPath id="K"><path d="M139 90h23v36h-23zm0 0"/></clipPath><clipPath id="L"><use xlink:href="#An"/></clipPath><clipPath id="M"><path d="M120 142h17v29h-17zm0 0"/></clipPath><clipPath id="N"><use xlink:href="#An"/></clipPath><clipPath id="O"><path d="M144 172h18v27h-18zm0 0"/></clipPath><clipPath id="P"><use xlink:href="#An"/></clipPath><clipPath id="Q"><path d="M161 200h26v43h-26zm0 0"/></clipPath><clipPath id="R"><use xlink:href="#An"/></clipPath><clipPath id="S"><path d="M0 170h95v80H0zm0 0"/></clipPath><clipPath id="T"><use xlink:href="#An"/></clipPath><clipPath id="U"><use xlink:href="#An"/></clipPath><filter id="V" width="100%" height="100%" x="0%" y="0%"><feColorMatrix in="SourceGraphic" values="0 0 0 0 1 0 0 0 0 1 0 0 0 0 1 0 0 0 1 0"/></filter><mask id="W"><g class="B"><path fill-opacity=".15" d="M0 0h250v250H0z"/></g></mask><linearGradient id="X" x1=".069" x2="107.522" y1="176.783" y2="176.783" gradientUnits="userSpaceOnUse"><stop offset="0" stop-color="#f296bf"/><stop offset=".214" stop-color="#f19dc1"/><stop offset=".582" stop-color="#f0b0ca"/><stop offset="1" stop-color="#f0cdd7"/></linearGradient><linearGradient id="Y" x1="308.567" x2="1093.807" y1="-52.605" y2="1061.047" gradientTransform="matrix(.23148 0 0 -.23148 0 250)" gradientUnits="userSpaceOnUse"><stop offset="0" stop-color="#f6ad6c"/><stop offset=".121" stop-color="#f6a871"/><stop offset=".33" stop-color="#f49b7d"/><stop offset=".6" stop-color="#f2858d"/><stop offset=".92" stop-color="#ef629b"/><stop offset="1" stop-color="#ef579f"/></linearGradient><linearGradient id="Z" x1="510.175" x2="988.825" y1="26.61" y2="705.43" gradientTransform="matrix(.23148 0 0 -.23148 0 250)" gradientUnits="userSpaceOnUse"><stop offset="0" stop-color="#db2166"/><stop offset=".144" stop-color="#dc2262"/><stop offset=".392" stop-color="#e02257"/><stop offset=".712" stop-color="#e62344"/><stop offset="1" stop-color="#ee232e"/></linearGradient><linearGradient id="a" x1="359.502" x2="669.972" y1="582.542" y2="1022.877" gradientTransform="matrix(.23148 0 0 -.23148 0 250)" gradientUnits="userSpaceOnUse"><stop offset="0" stop-color="#e074ad"/><stop offset=".174" stop-color="#e27cad"/><stop offset=".473" stop-color="#e890ae"/><stop offset=".859" stop-color="#f3b3b0"/><stop offset="1" stop-color="#f9c1b0"/></linearGradient><linearGradient id="b" x1="165.74" x2="245.438" y1="8.89" y2="8.89" gradientUnits="userSpaceOnUse"><stop offset="0" stop-color="#ed1982"/><stop offset=".492" stop-color="#ed1b87"/><stop offset="1" stop-color="#ed1d8f"/></linearGradient><mask id="c"><g class="B"><path fill-opacity=".5" d="M0 0h250v250H0z"/></g></mask><clipPath id="d"><use xlink:href="#Ao"/></clipPath><linearGradient id="e" x1="139.096" x2="148.078" y1="160.359" y2="160.359" gradientUnits="userSpaceOnUse"><stop offset="0" stop-color="#1e3567"/><stop offset=".198" stop-color="#1c3966"/><stop offset=".54" stop-color="#144465"/><stop offset=".981" stop-color="#075362"/><stop offset="1" stop-color="#065461"/></linearGradient><linearGradient id="f" gradientUnits="userSpaceOnUse"><stop offset="0" stop-color="#02a0b5" stop-opacity="0"/><stop offset=".952" stop-color="#009ab4" stop-opacity=".761"/><stop offset="1" stop-color="#009ab4" stop-opacity=".8"/></linearGradient><linearGradient xlink:href="#f" id="g" x1=".424" x2="129.481" y1="16.378" y2="215.067"/><mask id="h"><g class="B"><path d="M0 0h250v250H0z" class="F"/></g></mask><clipPath id="i"><use xlink:href="#Ao"/></clipPath><mask id="j"><g class="B"><path d="M0 0h250v250H0z" class="F"/></g></mask><clipPath id="k"><use xlink:href="#Ao"/></clipPath><mask id="l"><g class="B"><path d="M0 0h250v250H0z" class="F"/></g></mask><clipPath id="m"><use xlink:href="#Ao"/></clipPath><mask id="n"><g class="B"><path d="M0 0h250v250H0z" class="F"/></g></mask><clipPath id="o"><use xlink:href="#Ao"/></clipPath><mask id="p"><g class="B"><path d="M0 0h250v250H0z" class="F"/></g></mask><clipPath id="q"><use xlink:href="#Ao"/></clipPath><mask id="r"><g class="B"><path d="M0 0h250v250H0z" class="F"/></g></mask><clipPath id="s"><use xlink:href="#Ao"/></clipPath><mask id="t"><g class="B"><path d="M0 0h250v250H0z" class="F"/></g></mask><clipPath id="u"><use xlink:href="#Ao"/></clipPath><mask id="v"><g class="B"><path d="M0 0h250v250H0z" class="F"/></g></mask><clipPath id="w"><use xlink:href="#Ao"/></clipPath><mask id="x"><g class="B"><path d="M0 0h250v250H0z" class="F"/></g></mask><clipPath id="y"><use xlink:href="#Ao"/></clipPath><mask id="z"><g class="B"><path d="M0 0h250v250H0z" class="F"/></g></mask><clipPath id="AA"><use xlink:href="#Ao"/></clipPath><mask id="AB"><g class="B"><path d="M0 0h250v250H0z" class="F"/></g></mask><clipPath id="AC"><use xlink:href="#Ao"/></clipPath><mask id="AD"><g class="B"><path d="M0 0h250v250H0z" class="F"/></g></mask><clipPath id="AE"><use xlink:href="#Ao"/></clipPath><mask id="AF"><g class="B"><path d="M0 0h250v250H0z" class="F"/></g></mask><clipPath id="AG"><use xlink:href="#Ao"/></clipPath><mask id="AH"><g class="B"><path d="M0 0h250v250H0z" class="F"/></g></mask><clipPath id="AI"><use xlink:href="#Ao"/></clipPath><mask id="AJ"><g class="B"><path d="M0 0h250v250H0z" class="F"/></g></mask><clipPath id="AK"><use xlink:href="#Ao"/></clipPath><mask id="AL"><g class="B"><path d="M0 0h250v250H0z" class="F"/></g></mask><clipPath id="AM"><use xlink:href="#Ao"/></clipPath><mask id="AN"><g class="B"><path d="M0 0h250v250H0z" class="F"/></g></mask><clipPath id="AO"><use xlink:href="#Ao"/></clipPath><mask id="AP"><g class="B"><path d="M0 0h250v250H0z" class="F"/></g></mask><clipPath id="AQ"><use xlink:href="#Ao"/></clipPath><mask id="AR"><g class="B"><path d="M0 0h250v250H0z" class="I"/></g></mask><clipPath id="AS"><use xlink:href="#Ao"/></clipPath><mask id="AT"><g class="B"><path d="M0 0h250v250H0z" class="I"/></g></mask><clipPath id="AU"><use xlink:href="#Ao"/></clipPath><mask id="AV"><g class="B"><path fill-opacity=".8" d="M0 0h250v250H0z"/></g></mask><clipPath id="AW"><use xlink:href="#Ao"/></clipPath><mask id="AX"><g class="B"><path d="M0 0h250v250H0z" class="I"/></g></mask><clipPath id="AY"><use xlink:href="#Ao"/></clipPath><mask id="AZ"><g class="B"><path d="M0 0h250v250H0z" class="I"/></g></mask><clipPath id="Aa"><use xlink:href="#Ao"/></clipPath><mask id="Ab"><g class="B"><path fill-opacity=".68" d="M0 0h250v250H0z"/></g></mask><clipPath id="Ac"><use xlink:href="#Ao"/></clipPath><mask id="Ad"><g class="B"><path fill-opacity=".8" d="M0 0h250v250H0z"/></g></mask><clipPath id="Ae"><use xlink:href="#Ao"/></clipPath><linearGradient xlink:href="#f" id="Af" x1="32.662" x2="76.527" y1="147.42" y2="147.42"/><mask id="Ag"><g class="B"><path fill-opacity=".5" d="M0 0h250v250H0z"/></g></mask><clipPath id="Ah"><use xlink:href="#Ao"/></clipPath><clipPath id="Ai"><use xlink:href="#Ao"/></clipPath><clipPath id="Aj"><use xlink:href="#An"/></clipPath><mask id="Ak"><g class="B"><path fill-opacity=".7" d="M0 0h250v250H0z"/></g></mask><clipPath id="Al"><use xlink:href="#Ao"/></clipPath><g fill="url(#B)" clip-path="url(#A)"><use xlink:href="#Ao"/><use xlink:href="#Ao"/></g><g clip-path="url(#C)"><g clip-path="url(#D)"><path fill="#f8a171" d="M63.195 90.254H33.566a2.787 2.787 0 0 1-2.78-2.777V48.89a2.787 2.787 0 0 1 2.78-2.782h29.63a2.787 2.787 0 0 1 2.777 2.782v38.586a2.786 2.786 0 0 1-2.778 2.777zm0 0"/></g></g><g clip-path="url(#E)"><g clip-path="url(#F)"><path fill="#faaa71" d="M57.34 30.832H37.594a2.786 2.786 0 0 1-2.778-2.777V.973a2.786 2.786 0 0 1 2.778-2.778H57.34A2.786 2.786 0 0 1 60.117.973v27.082a2.786 2.786 0 0 1-2.777 2.777zm0 0"/></g></g><g clip-path="url(#G)"><g clip-path="url(#H)"><path fill="#f9a471" d="M133.566 43.797H68.75a2.786 2.786 0 0 1-2.777-2.777V5.602a2.786 2.786 0 0 1 2.777-2.778h64.816a2.786 2.786 0 0 1 2.778 2.778V41.02a2.77 2.77 0 0 1-2.778 2.777zm0 0"/></g></g><g clip-path="url(#I)"><g clip-path="url(#J)"><path fill="#f7956b" d="M205.484 121.574h-33.656a2.786 2.786 0 0 1-2.777-2.777V41.945a2.786 2.786 0 0 1 2.777-2.777h33.637a2.786 2.786 0 0 1 2.777 2.777v76.852c.024 1.527-1.226 2.777-2.758 2.777zm0 0"/></g></g><g clip-path="url(#K)"><g clip-path="url(#L)"><path fill="#faab72" d="M158.266 125.277h-15.743a2.786 2.786 0 0 1-2.777-2.777V93.496a2.786 2.786 0 0 1 2.777-2.777h15.743a2.786 2.786 0 0 1 2.777 2.777V122.5a2.786 2.786 0 0 1-2.777 2.777zm0 0"/></g></g><g clip-path="url(#M)"><g clip-path="url(#N)"><path fill="#f9a571" d="M133.566 170.184h-10.488a2.786 2.786 0 0 1-2.777-2.778v-22.523a2.786 2.786 0 0 1 2.777-2.778h10.488a2.786 2.786 0 0 1 2.778 2.778v22.523a2.786 2.786 0 0 1-2.778 2.778zm0 0"/></g></g><g clip-path="url(#O)"><g clip-path="url(#P)"><path fill="#fbb171" d="M158.266 198.75h-11.414a2.786 2.786 0 0 1-2.778-2.777V175.3a2.786 2.786 0 0 1 2.778-2.778h11.414a2.786 2.786 0 0 1 2.777 2.778v20.672a2.786 2.786 0 0 1-2.777 2.777zm0 0"/></g></g><g clip-path="url(#Q)"><g clip-path="url(#R)"><path fill="#f89e71" d="M163.82 200.277h20.371a2.786 2.786 0 0 1 2.778 2.778v37.039a2.786 2.786 0 0 1-2.778 2.777h-20.37a2.786 2.786 0 0 1-2.778-2.777v-37.04c0-1.503 1.25-2.777 2.777-2.777zm0 0"/></g></g><g clip-path="url(#S)"><g clip-path="url(#T)"><path fill="#fcbb71" d="M-.695 249.816h91.968a2.787 2.787 0 0 0 2.778-2.78v-74.071a2.787 2.787 0 0 0-2.778-2.781H-.695a2.787 2.787 0 0 0-2.778 2.78v74.071a2.787 2.787 0 0 0 2.778 2.781zm0 0"/></g></g><g clip-path="url(#U)"><g clip-path="url(#Ai)" mask="url(#W)"><use xlink:href="#Ao" fill="#fff"/><path fill="#dbc2de" d="M45.832 76.18 32.66 96.715l89.91-15.606V61.391zm0 0"/><path fill="url(#X)" d="m3.82 264.469 103.703-153.567-10.742-21.804L.071 230.37zm0 0"/><path fill="#ed1c24" d="m156.48-1.227 44.422-10.37-35.16 51.69zm0 0"/><path fill="url(#Y)" d="M140.832 257.43 258.496 72.453l-31.02-125.277-207.66 321.25zm0 0"/><path fill="url(#Z)" d="M104.559 260.277 228.332 62.5l5.512 24.352-108.567 171.804zm0 0"/><path fill="url(#a)" d="m56.805 21.945 23.172 107.778 100.832-22.317L156.48-1.227zm0 0"/><path fill="url(#b)" d="m170.766 62.5 74.675-16.805-22.039-90.418-57.66 84.817zm0 0"/><path fill="#ed1e24" d="M78.45 16.898 41.155 77.57l5.512 42.012L112.895 8.891zm0 0"/><path fill="#f7c752" d="m56.805 21.945 4.816 22.36L78.45 16.898zm0 0"/><path fill="#f26422" d="m94.121 13.266 3.172 21.71 15.602-26.085zm0 0"/><g clip-path="url(#d)" mask="url(#c)"><path fill="#7c8fb7" d="m111.852 66.574-6.668-31.597-23.45 37.476zm0 0"/></g><path fill="#f26328" d="m79.977 129.723 7.246 34.77 27.175-42.388zm0 0"/><path fill="#f36e37" d="m69.793 163.633 57.66-9.281-44.906 67.8zm0 0"/><path fill="#f7b351" d="m74.168 183.633 15.95-23.285-20.325 3.285zm0 0"/><path fill="#ec165f" d="m70.879 228.52 2.894 11.015 8.403-13.031zm0 0"/><path fill="#f15822" d="m87.223 164.492 2.894-4.144-3.637.601zm0 0"/><path fill="url(#e)" d="m139.098 156.875 2.312 9.281 6.668-11.597zm0 0"/><path fill="url(#g)" d="M2.918 65.809 129.699 40.37 18.797 203.148zm0 0"/><path fill="#ef4823" d="m110.508 9.375-13.727 22.2-2.66-18.31zm0 0"/><path fill="#f6aa59" d="m6.273 232.941 34.747-6.738-29.77 46.137zm0 0"/><path fill="#f37053" d="M10.023 262.684 34.605 227.5l-28.332 5.441zm0 0"/><g clip-path="url(#i)" mask="url(#h)" class="C D E G"><path d="M102.777 232.593 210.577 62.5"/></g><g clip-path="url(#k)" mask="url(#j)" class="C D E G"><path d="M112.824 230.878 211.757 74.77"/></g><g clip-path="url(#m)" mask="url(#l)" class="C D E G"><path d="m124.468 226.644 88.496-139.609"/></g><g clip-path="url(#o)" mask="url(#n)" class="C D E G"><path d="m133.426 226.644 80.718-127.363"/></g><g clip-path="url(#q)" mask="url(#p)" class="C D E G"><path d="m144.168 222.8 73.171-115.484"/></g><g clip-path="url(#s)" mask="url(#r)" class="C D E G"><path d="m155.183 218.957 63.961-100.926"/></g><g clip-path="url(#u)" mask="url(#t)" class="C D E G"><path d="M44.121 47.594 124.84-79.77"/></g><g clip-path="url(#w)" mask="url(#v)" class="C D E G"><path d="M54.84 43.75 128.03-71.734"/></g><g clip-path="url(#y)" mask="url(#x)" class="C D E G"><path d="m65.879 39.906 63.96-100.925"/></g><g clip-path="url(#AA)" mask="url(#z)" class="C D E H"><path d="M-2.176 254.328 133.172 40.766"/></g><g clip-path="url(#AC)" mask="url(#AB)" class="C D E H"><path d="M-7.316 240.578 128.03 27.016"/></g><g clip-path="url(#AE)" mask="url(#AD)" class="C D E H"><path d="M-12.43 226.851 122.894 13.285"/></g><g clip-path="url(#AG)" mask="url(#AF)" class="C D E H"><path d="M-17.57 213.101 117.777-.465"/></g><g clip-path="url(#AI)" mask="url(#AH)" class="C D E H"><path d="M10.441 252.175 134.652 56.156"/></g><g clip-path="url(#AK)" mask="url(#AJ)" class="C D E H"><path d="M25.07 246.874 136.156 71.551"/></g><g clip-path="url(#AM)" mask="url(#AL)" class="C D E H"><path d="M36.32 246.874 137.66 86.945"/></g><g clip-path="url(#AO)" mask="url(#AN)" class="C D E H"><path d="m49.77 242.035 91.898-145"/></g><g clip-path="url(#AQ)" mask="url(#AP)" class="C D E H"><path d="m63.633 237.222 80.3-126.738"/></g><g clip-path="url(#AS)" mask="url(#AR)" class="C D E J"><path d="m-115.531 246.226 226.734-357.8"/></g><g clip-path="url(#AU)" mask="url(#AT)" class="C D E J"><path d="m-89.906 241.132 202.8-320.022"/></g><g clip-path="url(#AW)" mask="url(#AV)"><path fill="#eda3c8" d="M-2.176 176.945v26.203L76.527 81.11v-25.3zm0 0"/></g><g clip-path="url(#AY)" mask="url(#AX)" class="C D E J"><path d="m-66.18 240.578 185-291.922"/></g><g clip-path="url(#Aa)" mask="url(#AZ)" class="C D E J"><path d="m-38.031 229.722 167.73-264.675"/></g><g clip-path="url(#Ac)" mask="url(#Ab)"><path fill="#0396b6" d="m-21.55 222.8 46.62-7.5-6.828-56.226zm0 0"/></g><g clip-path="url(#Ae)" mask="url(#Ad)"><path fill="#006185" d="m31.805 92.941.789 8.403 6.64-9.309zm0 0"/></g><path fill="url(#Af)" d="m32.66 129.469 13.172 40.066 30.695-44.234zm0 0"/><g clip-path="url(#Ah)" mask="url(#Ag)"><path fill="#8d5b76" d="m56.805 127.176-16.457 25.648-7.688-23.355zm0 0"/></g></g></g><use xlink:href="#Ap" fill="#ffd48a"/><g clip-path="url(#Aj)"><g clip-path="url(#Al)" mask="url(#Ak)"><path fill="#f04b36" d="M125.184 258.45c-17.985 0-35.438-3.52-51.875-10.485-15.88-6.715-30.114-16.32-42.36-28.567a132.6 132.6 0 0 1-28.566-42.34c-6.942-16.433-10.485-33.886-10.485-51.874s3.52-35.438 10.485-51.875c6.715-15.88 16.32-30.114 28.566-42.36S57.43 9.098 73.31 2.383c16.414-6.965 33.867-10.485 51.875-10.485 17.988 0 35.441 3.52 51.875 10.485 15.882 6.715 30.117 16.32 42.363 28.566s21.851 26.48 28.562 42.36c6.946 16.437 10.489 33.89 10.489 51.875s-3.52 35.441-10.489 51.875c-6.71 15.882-16.316 30.117-28.562 42.363s-26.48 21.851-42.363 28.562c-16.434 6.946-33.887 10.465-51.875 10.465zm0-238.774c-14.258 0-28.055 2.777-41.063 8.289-12.57 5.32-23.844 12.914-33.543 22.613S33.266 71.551 27.965 84.121c-5.512 12.984-8.29 26.805-8.29 41.063s2.778 28.058 8.29 41.066c5.32 12.57 12.914 23.844 22.613 33.543s20.973 17.312 33.543 22.613c12.984 5.489 26.805 8.29 41.063 8.29s28.058-2.778 41.066-8.29a105.23 105.23 0 0 0 33.543-22.613c9.699-9.699 17.312-20.973 22.613-33.543 5.489-12.984 8.29-26.805 8.29-41.066s-2.778-28.055-8.29-41.063a105.23 105.23 0 0 0-22.613-33.543c-9.699-9.699-20.973-17.312-33.543-22.613-13.008-5.512-26.828-8.29-41.066-8.29zm0 0"/></g></g><use xlink:href="#Ap" fill="#ffd48a"/><path d="M168.82 128.219l-42.965-73.313-42.96 73.313 42.96 26.062zm-85.925 8.586l42.96 63.011 42.965-63.011-42.965 26.343zm0 0" fill="#d7492d"/><path d="M168.195 126.621L125.23 53.31l-42.96 73.31 42.96 26.063zM82.27 135.23l42.96 62.989 42.965-62.989-42.965 26.344zm0 0" fill="#fff"/><defs ><path id="An" d="M250.371 125.184c0 69.14-56.047 125.187-125.187 125.187S0 194.324 0 125.184 56.047 0 125.184 0s125.187 56.047 125.187 125.184zm0 0"/><path id="Ao" d="M0 0h250v250H0z"/><path id="Ap" d="M125.184 11.574c15.347 0 30.21 3.008 44.214 8.91 13.52 5.72 25.672 13.914 36.11 24.356 10.441 10.437 18.637 22.59 24.351 36.11 5.926 14.003 8.914 28.866 8.914 44.21s-3.007 30.211-8.914 44.215c-5.714 13.52-13.91 25.672-24.351 36.11a113.23 113.23 0 0 1-36.11 24.355c-14.003 5.926-28.867 8.91-44.214 8.91a113.19 113.19 0 0 1-44.211-8.91c-13.52-5.719-25.672-13.914-36.114-24.356-10.437-10.437-18.632-22.59-24.351-36.109-5.926-13.98-8.934-28.867-8.934-44.191s3.008-30.207 8.91-44.211c5.72-13.52 13.914-25.672 24.356-36.114 10.437-10.437 22.59-18.632 36.11-24.351 14.003-5.926 28.89-8.934 44.234-8.934m0-11.574C56.043 0 0 56.043 0 125.184S56.043 250.37 125.184 250.37s125.187-56.043 125.187-125.187S194.305 0 125.184 0zm0 0"/></defs></svg>