<svg width="37" height="37" viewBox="0 0 37 37" fill="none" xmlns="http://www.w3.org/2000/svg">
<g clip-path="url(#clip0_4519_9542)">
<path d="M18.5 37C28.7173 37 37 28.7173 37 18.5C37 8.28273 28.7173 0 18.5 0C8.28273 0 0 8.28273 0 18.5C0 28.7173 8.28273 37 18.5 37Z" fill="#E41A1A"/>
</g>
<path fill-rule="evenodd" clip-rule="evenodd" d="M3.01184 18.4865C3.01184 10.9403 8.40869 4.6545 15.5533 3.27832V4.72989C9.19965 6.08429 4.43422 11.7289 4.43422 18.4865C4.43422 25.2442 9.19965 30.8888 15.5533 32.2432V33.6948C8.40869 32.3186 3.01184 26.0328 3.01184 18.4865ZM21.4734 3.28346V4.73558C27.8137 6.10003 32.5659 11.7383 32.5659 18.4865C32.5659 25.2348 27.8137 30.8731 21.4734 32.2375V33.6896C28.6048 32.303 33.9883 26.0235 33.9883 18.4865C33.9883 10.9496 28.6048 4.67009 21.4734 3.28346ZM23.4565 19.2718C22.805 18.6283 21.8884 18.1939 20.7066 17.9687L16.6387 17.2207C15.9569 17.092 15.4191 16.8346 15.0252 16.4485C14.6464 16.0624 14.457 15.5878 14.457 15.0248V13.7217C14.457 13.0299 14.7146 12.483 15.2297 12.0808C15.7448 11.6625 16.4342 11.4534 17.2978 11.4534H19.8658C20.6688 11.4534 21.3127 11.7188 21.7975 12.2497C22.2823 12.7806 22.5247 13.4884 22.5247 14.3732H24.161C24.161 13.0219 23.7671 11.936 22.9792 11.1156C22.1914 10.279 21.1536 9.86076 19.8658 9.86076H19.3431V7.39941H17.7068V9.86076H17.2978C15.9342 9.86076 14.8358 10.2147 14.0025 10.9225C13.1844 11.6143 12.7753 12.5473 12.7753 13.7217V15.0248C12.7753 16.0222 13.0935 16.8507 13.7298 17.5102C14.3661 18.1698 15.26 18.6042 16.4115 18.8133L20.5021 19.5372C21.199 19.6498 21.7445 19.8992 22.1384 20.2853C22.5474 20.6714 22.752 21.1379 22.752 21.6849V23.2292C22.752 23.921 22.4793 24.484 21.9338 24.9184C21.3884 25.3367 20.6688 25.5458 19.7749 25.5458H17.2523C16.3433 25.5458 15.6085 25.2401 15.0479 24.6288C14.5025 24.0014 14.2298 23.189 14.2298 22.1916H12.5935C12.5935 23.1729 12.7829 24.0416 13.1617 24.7977C13.5556 25.5378 14.101 26.1169 14.7979 26.5352C15.4948 26.9373 16.2978 27.1384 17.2069 27.1384H17.7068V29.5998H19.3431V27.1384H19.8203C21.199 27.1384 22.3126 26.7845 23.161 26.0767C24.0095 25.3527 24.4337 24.4036 24.4337 23.2292V21.6849C24.4337 20.7035 24.108 19.8992 23.4565 19.2718Z" fill="white"/>
<defs>
<clipPath id="clip0_4519_9542">
<rect width="37" height="37" fill="white"/>
</clipPath>
</defs>
</svg>
