<svg xmlns="http://www.w3.org/2000/svg" width="250" height="250"><path fill="#2775ca" d="M125 250c69.27 0 125-55.73 125-125S194.27 0 125 0 0 55.73 0 125s55.73 125 125 125zm0 0"/><g fill="#fff"><path d="M159.375 144.793c0-18.23-10.938-24.48-32.813-27.086-15.624-2.082-18.75-6.25-18.75-13.539 0-7.293 5.208-11.98 15.626-11.98 9.374 0 14.582 3.124 17.187 10.937.52 1.563 2.082 2.605 3.645 2.605h8.335c2.083 0 3.645-1.562 3.645-3.648v-.52c-2.082-11.457-11.457-20.312-23.438-21.355v-12.5c0-2.082-1.562-3.644-4.167-4.164h-7.813c-2.082 0-3.644 1.562-4.164 4.164v11.98c-15.625 2.083-25.523 12.5-25.523 25.52 0 17.188 10.418 23.961 32.293 26.563 14.582 2.605 19.269 5.73 19.269 14.062 0 8.336-7.289 14.063-17.187 14.063-13.54 0-18.227-5.727-19.79-13.54-.523-2.085-2.085-3.125-3.648-3.125H93.23c-2.085 0-3.648 1.563-3.648 3.645v.52c2.086 13.023 10.418 22.398 27.606 25v12.5c0 2.085 1.562 3.648 4.167 4.167h7.813c2.082 0 3.644-1.562 4.164-4.167v-12.5c15.625-2.602 26.043-13.54 26.043-27.602zm0 0"/><path d="M98.438 199.48c-40.626-14.585-61.458-59.898-46.356-100 7.813-21.875 25-38.543 46.355-46.355 2.083-1.043 3.126-2.605 3.126-5.207v-7.293c0-2.082-1.043-3.645-3.126-4.168-.519 0-1.562 0-2.082.523-49.48 15.625-76.562 68.227-60.937 117.708 9.375 29.167 31.77 51.562 60.937 60.937 2.082 1.043 4.165 0 4.688-2.082.52-.523.52-1.043.52-2.086v-7.289c0-1.563-1.563-3.648-3.126-4.688zm55.207-162.5c-2.083-1.042-4.165 0-4.688 2.083-.52.519-.52 1.042-.52 2.082v7.292c0 2.083 1.563 4.168 3.125 5.208 40.625 14.585 61.458 59.898 46.356 100-7.813 21.875-25 38.542-46.356 46.355-2.082 1.043-3.125 2.605-3.125 5.207v7.293c0 2.082 1.043 3.645 3.125 4.168.52 0 1.563 0 2.083-.523 49.48-15.625 76.562-68.227 60.937-117.708-9.375-29.687-32.289-52.082-60.937-61.457zm0 0"/></g></svg>