<svg xmlns="http://www.w3.org/2000/svg" width="250" height="250">
  <linearGradient
    id="a"
    x1="67.119"
    x2="182.881"
    y1="24.746"
    y2="225.254"
    gradientUnits="userSpaceOnUse"
  >
    <stop offset="0" stop-color="#0095d7" />
    <stop offset="1" stop-color="#0072aa" />
  </linearGradient>
  <path
    fill="#fff"
    d="M249.512 125c0 68.766-55.746 124.512-124.512 124.512S.488 193.766.488 125 56.234.488 125 .488 249.512 56.234 249.512 125zm0 0"
  />
  <path
    fill="url(#a)"
    d="M240.746 125c0 63.926-51.82 115.746-115.746 115.746S9.254 188.926 9.254 125 61.074 9.254 125 9.254 240.746 61.074 240.746 125zm0 0"
  />
  <path
    fill="#fff"
    d="M172.32 139.29a28.734 28.734 0 0 0-7.886-9.962 46.4 46.4 0 0 0-12.93-7.172c-5.293-1.984-11.27-3.906-17.77-5.636-5.062-1.266-9.629-2.497-13.566-3.66a51.696 51.696 0 0 1-10.254-4.07 20.219 20.219 0 0 1-6.836-5.743c-1.71-2.36-2.578-5.293-2.578-8.73 0-5.817 2.207-10.415 6.55-13.672 4.138-3.102 10.04-4.61 18.044-4.61 4.316 0 8.613.547 12.793 1.621a78.118 78.118 0 0 1 11.465 3.887 63.163 63.163 0 0 1 9.043 4.727c.593.386 1.144.757 1.66 1.109a.724.724 0 0 0 .586.105.707.707 0 0 0 .488-.359l7.91-14.527a.727.727 0 0 0-.262-.977 99.873 99.873 0 0 0-17.535-8.433 68.921 68.921 0 0 0-17.406-3.907l-.512-.047V36.09a.733.733 0 0 0-.73-.735h-16.836a.734.734 0 0 0-.735.735v23.668a57.715 57.715 0 0 0-7.562 1.765 45.341 45.341 0 0 0-14.8 7.618 34.361 34.361 0 0 0-9.766 12.32c-2.344 4.914-3.528 10.656-3.528 17.09 0 4.804.719 8.945 2.153 12.308a25.056 25.056 0 0 0 6.414 8.887 41.556 41.556 0 0 0 11.152 6.942 119.922 119.922 0 0 0 16.5 5.636 2626.555 2626.555 0 0 1 14.586 4.223 71.394 71.394 0 0 1 11.586 4.394c3.418 1.715 6.133 3.782 8.054 6.145a14.433 14.433 0 0 1 3.157 9.344c0 11.09-8.57 16.949-24.785 16.949a64.37 64.37 0 0 1-16.04-1.992 85.659 85.659 0 0 1-14.066-4.86 97.473 97.473 0 0 1-10.95-5.722 73.99 73.99 0 0 1-2.968-1.922.728.728 0 0 0-.594-.102.704.704 0 0 0-.488.375l-8.101 15.801a.723.723 0 0 0 .253.945 91.816 91.816 0 0 0 23.227 10.743 101.54 101.54 0 0 0 16.555 3.605l-.004 21.543c0 .402.328.73.734.73h16.82a.733.733 0 0 0 .735-.73v-20.875l.578-.043c4.117-.293 8.2-.926 12.207-1.887a45.413 45.413 0 0 0 15.074-6.535 31.785 31.785 0 0 0 10.137-11.457c2.496-4.703 3.762-10.504 3.762-17.234.03-5.75-.895-10.621-2.735-14.473zm0 0"
  />
</svg>
