<svg xmlns="http://www.w3.org/2000/svg" width="250" height="250"><g fill-rule="evenodd"><path fill="#26a17b" d="M250 125c0 69.035-55.965 125-125 125S0 194.035 0 125 55.965 0 125 0s125 55.965 125 125zm0 0"/><path fill="#fff" d="M140.016 135.805v-.016c-.86.063-5.29.328-15.172.328-7.89 0-13.446-.234-15.399-.328v.024c-30.375-1.336-53.047-6.625-53.047-12.954 0-6.32 22.672-11.609 53.047-12.968v20.656c1.985.14 7.672.476 15.532.476 9.43 0 14.156-.39 15.039-.468v-20.649c30.312 1.352 52.93 6.64 52.93 12.953 0 6.329-22.618 11.602-52.93 12.946m0-28.047V89.273h42.297V61.086H67.147v28.187h42.297v18.477c-34.375 1.578-60.226 8.39-60.226 16.547s25.851 14.96 60.226 16.547v59.234h30.57v-59.25c34.32-1.578 60.11-8.383 60.11-16.531s-25.79-14.953-60.11-16.54"/></g></svg>