<svg xmlns="http://www.w3.org/2000/svg" width="250" height="250"><path d="M70.086 247.95c62.836 0 62.836-.934 73.492-4.098 13.922-4.133-39.312-40.985-73.492-40.985-34.18 0-61.89 10.094-61.89 22.543 0 12.45 27.71 22.54 61.89 22.54zm0 0"/><path d="m212.773 56.27 2.887 3.113-2.523 3.414C131.184 173.605 83.973 223.773 63.94 217.047c-12.199-4.102-24.433-16.426-36.671-34.324-4.301-6.293-8.34-12.918-12.012-19.508-2.445-4.39-4.516-8.395-5.59-10.649-1.371-2.879-1.953-4.652-2.41-6.976l-.055-.281c-.191-.989-.258-1.301-.402-1.84a111.871 111.871 0 0 1-3.727-28.715c0-61.68 50-111.68 111.68-111.68 19.324 0 37.945 4.918 54.45 14.149l.425.265c13.512 9.41 27.883 22.336 43.144 38.782zM163.98 26.043c-14.93-8.305-31.75-12.723-49.226-12.723-56.02 0-101.434 45.414-101.434 101.434 0 8.902 1.145 17.648 3.383 26.086.223.836.324 1.308.559 2.515.023.13.023.13.047.25.296 1.5.609 2.458 1.605 4.551.98 2.059 2.953 5.867 5.293 10.07 3.531 6.337 7.41 12.7 11.523 18.715 11.055 16.168 22.016 27.215 31.477 30.391 12.613 4.238 60.102-46.031 135.148-147.195-13.625-14.38-26.425-25.746-38.375-34.094zm0 0"/><path fill="#ec1c79" d="M163.98 26.043c-14.93-8.305-31.75-12.723-49.226-12.723-56.02 0-101.434 45.414-101.434 101.434 0 8.902 1.145 17.648 3.383 26.086.223.836.324 1.308.559 2.515.023.13.023.13.047.25.296 1.5.609 2.458 1.605 4.551.98 2.059 2.953 5.867 5.293 10.07 3.531 6.337 7.41 12.7 11.523 18.715 11.055 16.168 22.016 27.215 31.477 30.391 12.613 4.238 60.102-46.031 135.148-147.195-13.625-14.38-26.425-25.746-38.375-34.094zm0 0"/><path d="M135.246 246.926c-61.68 0-111.68-50-111.68-111.68 0-61.68 50-111.68 111.68-111.68 61.68 0 111.68 50 111.68 111.68 0 61.68-50 111.68-111.68 111.68zm0-10.246c56.02 0 101.434-45.414 101.434-101.434 0-56.02-45.414-101.434-101.434-101.434-56.02 0-101.434 45.415-101.434 101.434 0 56.02 45.415 101.434 101.434 101.434zm0 0"/><path fill="#fff" d="M135.246 236.68c56.02 0 101.434-45.414 101.434-101.434 0-56.02-45.414-101.434-101.434-101.434-56.02 0-101.434 45.415-101.434 101.434 0 56.02 45.415 101.434 101.434 101.434zm0 0"/><path fill-rule="evenodd" d="m59.367 156.023-13.426-40.449h11.762l7 23.239 7.746-23.352h9.582l7.746 23.352 7-23.239h11.535l-13.425 40.45h-9.7l-8.09-23.122-8.03 23.121zm53.363-.285v-40.164h32.301v9.465h-21.285v6.082h19.277v8.781h-19.277v6.368h21.574v9.468zm48.082 0v-30.41h-12.05v-9.754h35.23v9.754h-12.05v30.41zm28.055 0v-40.164H200v15.031h14.285v-15.03h11.133v40.163h-11.133v-15.261H200v15.261zm0 0"/><path d="M9.73 103.492a5.737 5.737 0 1 1 5.13-10.262l16.394 8.196a5.737 5.737 0 1 1-5.133 10.261zM7.84 130.676a5.74 5.74 0 0 1 4.808-10.422l16.395 7.566a5.74 5.74 0 0 1-4.809 10.422zm0 0"/></svg>